# xmcd
#
# Track frame offsets:
#	182
#	13020
#	23127
#	36127
#	46822
#	58442
#	71675
#	84835
#	97637
#	112700
#	128547
#	140600
#	153565
#	167660
#	183540
#	196182
#	210352
#	223867
#	237037
#	249872
#	260017
#
# Disc length: 3623 seconds
#
# Revision: 1
# Processed by: cddbd v1.5.2PL0 Copyright (c) Steve Scherf et al.
# Submitted via: audiograbber 1.83.01
#
DISCID=130e2515
DTITLE=Various Artist - COUNTRY STYLE SINGIN' - COUNTRY GOLD  CD 5
DYEAR=1900
DGENRE=Country
TTITLE0=CAROLINE DU PREEZ and TOMMY DELL - SOMETIMES
TTITLE1=GEORGE HAMILTON - ABILENE
TTITLE2=ANNE MURRAY - I'LL BE YOUR BABY TONIGHT
TTITLE3=LANCE JAMES - THERE WON'T BE ANYMORE
TTITLE4=GROEP TWEE - OLIE KOLONIE
TTITLE5=CRYSTAL GALE - THE WAYWARD WIND
TTITLE6=FRANK IFIELD - WOLVERTON MOUNTAIN
TTITLE7=CHARLEY PRIDE - RHINESTONE COWBOY
TTITLE8=DOLLY PARTON - JEALOUS HEART
TTITLE9=JODY WAYNE - PATCHES
TTITLE10=KITTY WELLS - IT WASN'T GOD WHO MADE HONKY- TONK
TTITLE11=EDDY ARNOLD - I REALLY DON'T WANT TO KNOW
TTITLE12=EUGENE HAVENGA and MARITZA - COUNTRY GOLD
TTITLE13=WILLIE NELSON - ALWAYS ON MY MIND
TTITLE14=DOLLY PARTON and PORTER WAGONER - PLEASE DON'T STOP LOVING ME
TTITLE15=TAMMY WYNETTE - STARTING OVER
TTITLE16=CAROLINE DU PREEZ and TOMMY DELL - GOLDEN RING
TTITLE17=CRYSTAL GALE  - TALKING IN YOUR SLEEP
TTITLE18=GLEN CAMPBELL - I'LL HOLD YOU IN MY HEART
TTITLE19=BILLIE JO SPEARS - PUT A LITTLE LOVE IN YOUR HEART
TTITLE20=ANNE MURRAY and GLEN CAMPBELL - UNITED WE STAND
EXTD=
EXTT0=
EXTT1=
EXTT2=
EXTT3=
EXTT4=
EXTT5=
EXTT6=
EXTT7=
EXTT8=
EXTT9=
EXTT10=
EXTT11=
EXTT12=
EXTT13=
EXTT14=
EXTT15=
EXTT16=
EXTT17=
EXTT18=
EXTT19=
EXTT20=
PLAYORDER=
